<?xml version="1.0" standalone="no"?>
<!DOCTYPE svg PUBLIC "-//W3C//DTD SVG 20010904//EN"
 "http://www.w3.org/TR/2001/REC-SVG-20010904/DTD/svg10.dtd">
<svg version="1.0" xmlns="http://www.w3.org/2000/svg"
 width="700.000000pt" height="700.000000pt" viewBox="0 0 700.000000 700.000000"
 preserveAspectRatio="xMidYMid meet">
<metadata>
Created by potrace 1.11, written by Peter Selinger 2001-2013
</metadata>
<g transform="translate(0.000000,700.000000) scale(0.100000,-0.100000)"
fill="#000000" stroke="none">
<path d="M3335 6994 c-772 -47 -1438 -300 -2030 -771 -141 -111 -416 -386
-529 -528 -640 -803 -897 -1818 -715 -2825 198 -1097 929 -2049 1941 -2529
946 -449 2051 -449 2996 0 949 450 1647 1305 1897 2324 71 288 98 523 98 840
-1 541 -110 1027 -338 1502 -344 717 -898 1277 -1610 1628 -377 186 -737 292
-1155 339 -137 16 -445 27 -555 20z m560 -99 c886 -104 1675 -536 2250 -1230
534 -646 820 -1522 767 -2352 -32 -501 -135 -889 -352 -1328 -335 -678 -865
-1209 -1542 -1543 -112 -56 -257 -121 -323 -145 -976 -360 -2052 -262 -2943
267 -926 551 -1531 1497 -1653 2586 -19 168 -17 563 4 740 101 842 506 1619
1130 2167 571 502 1250 790 2007 852 152 13 492 5 655 -14z"/>
<path d="M3700 5578 c-196 -53 -303 -113 -448 -252 l-63 -60 -232 -7 c-128 -4
-250 -12 -272 -17 -51 -14 -207 -94 -267 -137 -66 -48 -89 -83 -193 -288 l-93
-182 -60 -21 c-34 -11 -65 -23 -68 -27 -4 -4 -14 -7 -21 -7 -8 0 -44 -14 -81
-32 -315 -149 -510 -411 -562 -757 -18 -118 -8 -476 14 -500 8 -9 47 -88 86
-176 161 -361 293 -559 535 -800 125 -125 307 -278 375 -316 14 -8 32 -20 41
-27 9 -7 42 -26 75 -43 141 -74 302 -155 339 -171 22 -9 61 -26 88 -37 225
-96 410 -142 692 -173 227 -24 811 -24 970 0 361 56 678 314 693 564 7 114
-45 246 -198 498 l-93 153 22 18 c12 10 92 57 179 105 394 218 539 319 581
403 47 92 75 292 69 490 -3 127 -3 128 -46 215 -36 72 -60 103 -146 189 -118
118 -278 245 -456 363 -121 80 -392 235 -497 284 -52 25 -73 52 -73 92 0 22
-3 33 -41 148 -88 267 -282 429 -612 508 -56 14 -187 14 -237 0z m192 -59
c279 -42 450 -155 558 -369 59 -117 78 -304 44 -421 -41 -139 -146 -269 -266
-328 -117 -58 -276 -76 -401 -46 -79 18 -85 25 -81 88 3 59 2 59 104 37 239
-51 479 154 480 409 0 187 -98 354 -252 429 -79 38 -223 67 -291 57 -88 -11
-217 -74 -217 -106 0 -5 30 -9 66 -9 78 0 116 -21 139 -77 28 -67 16 -135 -33
-186 -36 -39 -74 -57 -116 -57 -31 0 -41 7 -89 68 -56 69 -160 172 -212 209
l-29 21 19 37 c30 56 145 159 218 195 112 55 221 70 359 49z m-747 -334 c91
-23 163 -65 245 -142 178 -167 272 -379 273 -618 1 -129 -22 -228 -81 -339
-57 -108 -177 -218 -303 -275 -84 -38 -127 -49 -239 -60 -220 -23 -434 43
-585 181 -98 90 -161 192 -207 334 -18 57 -22 92 -22 204 0 161 13 218 87 370
121 248 316 356 649 359 83 1 147 -4 183 -14z m1532 -459 c187 -76 344 -162
477 -261 216 -159 532 -448 568 -518 58 -114 37 -543 -31 -637 -62 -86 -560
-336 -971 -487 -156 -57 -256 -56 -890 7 -58 6 -148 14 -200 19 -52 5 -108 12
-125 15 -16 3 -75 10 -130 16 -584 64 -1080 242 -1301 468 -96 97 -153 256
-141 398 8 107 -24 75 -71 -72 -46 -140 -57 -242 -37 -336 35 -169 88 -297
169 -405 65 -86 237 -247 359 -336 94 -68 337 -220 465 -289 48 -26 49 -27 50
-75 1 -76 66 -218 139 -306 26 -32 29 -47 10 -47 -8 0 -85 37 -173 81 -422
215 -712 412 -900 611 -200 213 -418 530 -483 702 -51 138 -80 368 -62 508 35
285 235 570 486 694 85 42 186 71 206 58 5 -3 9 -33 9 -67 0 -184 63 -353 190
-510 125 -154 250 -240 425 -293 80 -24 107 -27 245 -28 136 -1 164 2 230 22
181 56 366 192 444 324 35 59 82 190 91 252 l8 48 51 -5 c28 -3 94 -10 146
-17 197 -22 334 19 465 141 73 69 145 171 176 251 12 29 25 63 30 76 5 12 10
22 12 22 2 0 31 -11 64 -24z m354 -2234 c102 -159 149 -273 149 -364 0 -69
-48 -172 -115 -246 -52 -58 -79 -75 -164 -102 -231 -76 -497 -109 -710 -90
-75 7 -140 16 -145 21 -5 4 10 29 34 56 23 26 51 65 62 87 l20 38 51 -6 c29
-3 122 -9 207 -12 190 -7 320 10 417 57 111 53 213 178 213 260 0 72 -51 195
-140 337 -14 21 -13 25 4 38 40 29 58 18 117 -74z m-1800 -12 c226 0 258 2
253 15 -7 17 -3 18 20 9 9 -3 14 -10 11 -14 -3 -5 21 -2 52 6 63 14 143 18
183 7 l25 -7 -25 -7 c-15 -4 12 -7 65 -8 59 0 85 2 75 9 -12 8 -12 10 3 16 21
8 95 -5 80 -14 -6 -4 14 -7 44 -7 64 0 75 -11 100 -95 13 -44 15 -84 10 -205
-10 -265 -72 -388 -222 -444 -135 -50 -268 -63 -392 -37 -91 20 -132 38 -233
103 -147 96 -251 218 -295 348 -24 70 -41 215 -36 310 4 71 5 76 14 48 l10
-33 258 0z m617 23 c-10 -2 -28 -2 -40 0 -13 2 -5 4 17 4 22 1 32 -1 23 -4z"/>
<path d="M2840 5004 c-14 -3 -59 -17 -100 -31 -57 -20 -86 -38 -127 -78 -66
-63 -70 -92 -15 -100 56 -8 125 -48 146 -85 14 -23 21 -58 24 -114 3 -73 1
-86 -25 -136 -41 -80 -80 -103 -163 -97 -36 3 -79 8 -96 12 -42 9 -47 -2 -34
-77 30 -163 144 -294 308 -354 93 -34 275 -36 384 -4 122 36 209 94 261 175
42 64 55 102 67 201 26 197 -36 409 -155 528 -49 49 -146 116 -168 116 -7 0
-17 3 -21 7 -26 27 -212 51 -286 37z"/>
<path d="M5525 3877 c-38 -21 -40 -25 -43 -76 -2 -30 2 -59 9 -67 27 -33 149
-3 165 41 10 24 -5 80 -27 103 -25 28 -54 28 -104 -1z"/>
<path d="M4853 3645 c-56 -24 -68 -71 -28 -110 20 -21 34 -25 79 -25 95 0 131
31 105 91 -22 54 -90 73 -156 44z"/>
<path d="M3663 2483 c9 -2 23 -2 30 0 6 3 -1 5 -18 5 -16 0 -22 -2 -12 -5z"/>
</g>
</svg>
