<svg id="Capa_1" enable-background="new 0 0 512 512" height="512" viewBox="0 0 512 512" width="512" xmlns="http://www.w3.org/2000/svg" xmlns:xlink="http://www.w3.org/1999/xlink"><linearGradient id="SVGID_1_" gradientUnits="userSpaceOnUse" x1="291.158" x2="339.12" y1="313.265" y2="313.265"><stop offset="0" stop-color="#ab2c37"/><stop offset="1" stop-color="#ff4757"/></linearGradient><g><path d="m499.111 397.468v-222.642l-486.222-60.296v222.643c-.001 5.102 2.524 10.203 7.573 13.118l270.434 157.349c10.068 5.813 22.472 5.813 32.54 0l168.102-97.054c5.049-2.914 7.573-8.016 7.573-13.118z" fill="url(#SVGID_1_)"/><path d="m20.462 101.413 168.102-97.053c10.068-5.813 22.472-5.813 32.539 0l270.434 157.349c10.098 5.83 10.098 20.404 0 26.234l-168.102 97.053c-10.068 5.813-22.472 5.813-32.54 0l-270.433-157.349c-10.097-5.83-10.097-20.404 0-26.234z" fill="#ff7a85"/><g fill="#ff4757"><path d="m162.711 416.743 17.561 10.138v-188.924l-17.561-10.139z"/><path d="m268.076 288.65v188.925l19.413 11.208v-188.925z"/><path d="m197.832 248.095v188.925l17.561 10.139v-188.925z"/><path d="m127.589 396.465 17.561 10.139v-188.925l-17.561-10.139z"/><path d="m232.954 268.373v188.924l17.561 10.139v-188.925z"/><path d="m110.028 197.401-16.743-9.667v188.926l16.743 9.667z"/><path d="m40.041 156.747-16.744-9.667v188.925l16.744 9.667z"/><path d="m57.346 355.346 17.561 10.139v-188.925l-17.561-10.139z"/><path d="m39.785 156.282-16.743-9.667v188.926l16.743 9.667z"/></g><g fill="#ab2c37"><path d="m405.957 253.621-79.765 46.238v188.924l79.765-46.237z"/><path d="m413.537 249.235v188.925l72.185-41.695v-188.925z"/></g><path d="m425.851 347.571-32.979 19.041c-3.323 1.918-6.017-.118-6.017-4.548 0-4.43 2.694-9.577 6.017-11.496l32.979-19.041c3.323-1.918 6.017.118 6.017 4.548 0 4.431-2.694 9.578-6.017 11.496z" fill="#ff7a85"/></g></svg>