<svg id="Capa_1" enable-background="new 0 0 510 510" height="512" viewBox="0 0 510 510" width="512" xmlns="http://www.w3.org/2000/svg" xmlns:xlink="http://www.w3.org/1999/xlink"><linearGradient id="lg1"><stop offset="0" stop-color="#60b7ff"/><stop offset=".5857" stop-color="#0182fc"/><stop offset="1" stop-color="#2740b0"/></linearGradient><linearGradient id="SVGID_1_" gradientUnits="userSpaceOnUse" x1="89.934" x2="313.632" xlink:href="#lg1" y1="137.779" y2="137.779"/><linearGradient id="SVGID_2_" gradientUnits="userSpaceOnUse" x1="-1" x2="304.041" xlink:href="#lg1" y1="137.785" y2="137.785"/><linearGradient id="lg2"><stop offset="0" stop-color="#d8ecfe"/><stop offset=".5667" stop-color="#b3dafe"/><stop offset=".9955" stop-color="#8ac9fe"/></linearGradient><linearGradient id="SVGID_3_" gradientUnits="userSpaceOnUse" x1="116.344" x2="278.9" xlink:href="#lg2" y1="169.337" y2="169.337"/><linearGradient id="SVGID_4_" gradientUnits="userSpaceOnUse" x1="-19" x2="247.227" xlink:href="#lg2" y1="169.341" y2="169.341"/><linearGradient id="lg3"><stop offset="0" stop-color="#fd8087"/><stop offset=".5213" stop-color="#fb2b3a"/><stop offset="1" stop-color="#d90d80"/></linearGradient><linearGradient id="SVGID_5_" gradientTransform="matrix(1 0 0 -1 0 275.557)" gradientUnits="userSpaceOnUse" x1="284.2" x2="507.898" xlink:href="#lg3" y1="-93.143" y2="-93.143"/><linearGradient id="SVGID_6_" gradientUnits="userSpaceOnUse" x1="126" x2="502.018" xlink:href="#lg3" y1="368.699" y2="368.699"/><linearGradient id="lg4"><stop offset="0" stop-color="#fbc56d"/><stop offset=".5841" stop-color="#fe9738"/><stop offset=".9984" stop-color="#fb2b3a"/></linearGradient><linearGradient id="SVGID_7_" gradientTransform="matrix(1 0 0 -1 0 275.557)" gradientUnits="userSpaceOnUse" x1="310.61" x2="473.166" xlink:href="#lg4" y1="-61.585" y2="-61.585"/><linearGradient id="SVGID_8_" gradientUnits="userSpaceOnUse" x1="161" x2="490.029" xlink:href="#lg4" y1="329.291" y2="329.291"/><linearGradient id="SVGID_9_" gradientUnits="userSpaceOnUse" x1="-77" x2="433" xlink:href="#lg2" y1="255" y2="255"/><linearGradient id="SVGID_10_" gradientUnits="userSpaceOnUse" x1="370.011" x2="521.173" xlink:href="#lg2" y1="31" y2="31"/><linearGradient id="SVGID_11_" gradientUnits="userSpaceOnUse" x1="370.011" x2="521.173" xlink:href="#lg2" y1="78" y2="78"/><linearGradient id="SVGID_12_" gradientUnits="userSpaceOnUse" x1="309.5" x2="355.72" xlink:href="#lg1" y1="31" y2="31"/><linearGradient id="SVGID_13_" gradientUnits="userSpaceOnUse" x1="314.5" x2="358.73" xlink:href="#lg2" y1="78" y2="78"/><linearGradient id="SVGID_14_" gradientUnits="userSpaceOnUse" x1="125.597" x2="276.759" xlink:href="#lg2" y1="432.977" y2="432.977"/><linearGradient id="SVGID_15_" gradientUnits="userSpaceOnUse" x1="125.597" x2="276.759" xlink:href="#lg2" y1="479.977" y2="479.977"/><linearGradient id="SVGID_16_" gradientUnits="userSpaceOnUse" x1="65.086" x2="111.306" xlink:href="#lg3" y1="432.977" y2="432.977"/><linearGradient id="SVGID_17_" gradientUnits="userSpaceOnUse" x1="70.086" x2="114.316" xlink:href="#lg4" y1="479.977" y2="479.977"/><g><path d="m112.31 86.25-38.26 166.99h225.017l-38.26-166.99c-19.531-85.243-128.966-85.243-148.497 0z" fill="url(#SVGID_1_)"/><path d="m260.807 86.25c-11.807-51.531-56.465-71.897-94.258-61.126 24.725 7.047 46.514 27.413 54.238 61.126l38.26 166.989h40.02z" fill="url(#SVGID_2_)"/><path d="m132.604 131.892-27.803 121.348h163.515l-27.803-121.347c-14.192-61.945-93.716-61.945-107.909-.001z" fill="url(#SVGID_3_)"/><path d="m240.513 131.892c-8.369-36.525-39.45-51.504-66.46-44.956 18.798 4.557 35.625 19.537 41.449 44.956l27.803 121.347h25.011z" fill="url(#SVGID_4_)"/><path d="m455.073 420.229 38.26-166.989h-225.017l38.26 166.989c19.531 85.243 128.966 85.243 148.497 0z" fill="url(#SVGID_5_)"/><path d="m268.32 253.24 7.75 33.83h120.089c25.288 0 44.016 23.504 38.368 48.153l-19.477 85.007c-7.73 33.71-29.51 54.09-54.24 61.13 37.8 10.78 82.45-9.6 94.26-61.13l38.26-166.99z" fill="url(#SVGID_6_)"/><path d="m434.779 374.587 27.803-121.347h-163.515l27.803 121.347c14.193 61.944 93.717 61.944 107.909 0z" fill="url(#SVGID_7_)"/><path d="m462.582 253.24h-163.515l7.751 33.83h89.341c25.288 0 44.016 23.504 38.368 48.153l-16.066 70.119c7.502-7.539 13.346-17.784 16.318-30.755z" fill="url(#SVGID_8_)"/><path d="m502.426 247.426h-444.568v-239.852c0-4.183-3.391-7.574-7.575-7.574s-7.574 3.391-7.574 7.574v60.42h-35.135c-4.183 0-7.574 3.391-7.574 7.574s3.391 7.574 7.574 7.574h35.135v44.662h-22.247c-4.183 0-7.574 3.391-7.574 7.574s3.391 7.574 7.574 7.574h22.247v44.662h-22.247c-4.183 0-7.574 3.391-7.574 7.574s3.391 7.574 7.574 7.574h22.247v44.662h-35.135c-4.183.002-7.574 3.393-7.574 7.576s3.391 7.574 7.574 7.574h35.135v44.662h-22.247c-4.183 0-7.574 3.391-7.574 7.574s3.391 7.574 7.574 7.574h22.247v44.662h-22.247c-4.183 0-7.574 3.391-7.574 7.574s3.391 7.574 7.574 7.574h22.247v44.662h-35.135c-4.183 0-7.574 3.391-7.574 7.574s3.391 7.574 7.574 7.574h35.135v60.42c0 4.183 3.391 7.574 7.574 7.574s7.574-3.391 7.574-7.574v-239.85h444.568c4.183 0 7.574-3.391 7.574-7.574s-3.39-7.574-7.573-7.574z" fill="url(#SVGID_9_)"/><g><g><path d="m496.391 47h-126.735c-3.236 0-5.859-2.623-5.859-5.859v-20.282c0-3.236 2.623-5.859 5.859-5.859h126.735c3.236 0 5.859 2.623 5.859 5.859v20.282c0 3.236-2.624 5.859-5.859 5.859z" fill="url(#SVGID_10_)"/><path d="m427.165 94h-57.509c-3.236 0-5.859-2.623-5.859-5.859v-20.282c0-3.236 2.623-5.859 5.859-5.859h57.509c3.236 0 5.859 2.623 5.859 5.859v20.282c-.001 3.236-2.624 5.859-5.859 5.859z" fill="url(#SVGID_11_)"/></g><path d="m344.729 47h-20.53c-3.167 0-5.735-2.568-5.735-5.735v-20.53c0-3.167 2.568-5.735 5.735-5.735h20.53c3.167 0 5.735 2.568 5.735 5.735v20.53c0 3.167-2.568 5.735-5.735 5.735z" fill="url(#SVGID_12_)"/><path d="m344.729 94h-20.53c-3.167 0-5.735-2.568-5.735-5.735v-20.53c0-3.167 2.568-5.735 5.735-5.735h20.53c3.167 0 5.735 2.568 5.735 5.735v20.53c0 3.167-2.568 5.735-5.735 5.735z" fill="url(#SVGID_13_)"/></g><g><g><path d="m251.977 448.977h-126.735c-3.236 0-5.859-2.623-5.859-5.859v-20.282c0-3.236 2.623-5.859 5.859-5.859h126.735c3.236 0 5.859 2.623 5.859 5.859v20.282c0 3.236-2.623 5.859-5.859 5.859z" fill="url(#SVGID_14_)"/><path d="m182.751 495.977h-57.509c-3.236 0-5.859-2.623-5.859-5.859v-20.282c0-3.236 2.623-5.859 5.859-5.859h57.509c3.236 0 5.859 2.623 5.859 5.859v20.282c0 3.236-2.623 5.859-5.859 5.859z" fill="url(#SVGID_15_)"/></g><path d="m100.315 448.977h-20.53c-3.167 0-5.735-2.568-5.735-5.735v-20.53c0-3.167 2.568-5.735 5.735-5.735h20.53c3.167 0 5.735 2.568 5.735 5.735v20.53c0 3.167-2.567 5.735-5.735 5.735z" fill="url(#SVGID_16_)"/><path d="m100.315 495.977h-20.53c-3.167 0-5.735-2.568-5.735-5.735v-20.53c0-3.167 2.568-5.735 5.735-5.735h20.53c3.167 0 5.735 2.568 5.735 5.735v20.53c0 3.167-2.567 5.735-5.735 5.735z" fill="url(#SVGID_17_)"/></g></g></svg>